<svg id="Icons" enable-background="new 0 0 512 512" height="512" viewBox="0 0 512 512" width="512" xmlns="http://www.w3.org/2000/svg"><g><path d="m512 256c0 70.692-28.654 134.692-74.981 181.019s-110.327 74.981-181.019 74.981-134.692-28.654-181.019-74.981-74.981-110.327-74.981-181.019 28.654-134.692 74.981-181.019 110.327-74.981 181.019-74.981 134.692 28.654 181.019 74.981 74.981 110.327 74.981 181.019z" fill="#052481"/><path d="m252.087 430.583c-50.205 0-95.73-20.423-128.704-53.396s-53.396-78.499-53.396-128.704 20.423-95.73 53.396-128.704 78.499-53.396 128.704-53.396 95.73 20.423 128.704 53.396 53.396 78.499 53.396 128.704-20.423 95.73-53.396 128.704-78.499 53.396-128.704 53.396z" fill="#fff"/><path d="m402.62 248.484c0 41.569-16.849 79.202-44.09 106.443s-64.874 44.09-106.443 44.09-79.202-16.849-106.443-44.09-44.09-64.874-44.09-106.443 16.849-79.202 44.09-106.443 64.874-44.09 106.443-44.09 79.202 16.849 106.443 44.09 44.09 64.874 44.09 106.443z" fill="#f4b500"/><path d="m266.075 247.751c0 4.542-1.841 8.654-4.818 11.631s-7.089 4.818-11.631 4.818-8.654-1.841-11.631-4.818-4.818-7.089-4.818-11.631 1.841-8.654 4.818-11.631 7.089-4.818 11.631-4.818 8.654 1.841 11.631 4.818 4.818 7.089 4.818 11.631z" fill="#052481"/><path d="m256.309 207.442c0 11.923-.748 22.717-1.957 30.53s-2.88 12.646-4.725 12.646-3.516-4.833-4.725-12.646-1.957-18.607-1.957-30.53 1.671-22.717 3.341-30.53c1.671-7.813 3.341-12.646 3.341-12.646s1.671 4.833 3.341 12.646 3.341 18.608 3.341 30.53z" fill="#052481"/><path d="m279.298 227.884c-6.529 6.972-12.986 12.772-18.148 16.515-5.161 3.742-9.027 5.426-10.374 4.165s.08-5.229 3.477-10.624c3.396-5.395 8.761-12.218 15.291-19.19s13.66-12.142 19.158-15.569 9.364-5.111 9.364-5.111-1.427 3.968-4.487 9.678-7.752 13.164-14.281 20.136z" fill="#052481"/><g fill="#fff"><path d="m257.213 138.737c0 1.916-.777 3.651-2.032 4.907-1.256 1.256-2.99 2.032-4.907 2.032-1.916 0-3.651-.777-4.907-2.032-1.256-1.256-2.032-2.99-2.032-4.907 0-1.916.777-3.651 2.032-4.907s2.99-2.032 4.907-2.032c1.916 0 3.651.777 4.907 2.032 1.255 1.256 2.032 2.991 2.032 4.907z"/><path d="m257.213 356.417c0 1.916-.777 3.651-2.032 4.907-1.256 1.256-2.99 2.032-4.907 2.032-1.916 0-3.651-.777-4.907-2.032s-2.032-2.99-2.032-4.907c0-1.916.777-3.651 2.032-4.907s2.99-2.032 4.907-2.032c1.916 0 3.651.777 4.907 2.032 1.255 1.256 2.032 2.991 2.032 4.907z"/><path d="m141.434 240.638c1.916 0 3.651.777 4.907 2.032 1.256 1.256 2.032 2.99 2.032 4.907 0 1.916-.777 3.651-2.032 4.907s-2.99 2.032-4.907 2.032c-1.916 0-3.651-.777-4.907-2.032-1.256-1.256-2.032-2.99-2.032-4.907 0-1.916.777-3.651 2.032-4.907 1.256-1.256 2.991-2.032 4.907-2.032z"/><path d="m359.114 240.638c1.916 0 3.651.777 4.907 2.032 1.256 1.256 2.032 2.99 2.032 4.907 0 1.916-.777 3.651-2.032 4.907-1.256 1.256-2.99 2.032-4.907 2.032-1.916 0-3.651-.777-4.907-2.032s-2.032-2.99-2.032-4.907c0-1.916.777-3.651 2.032-4.907 1.256-1.256 2.991-2.032 4.907-2.032z"/><path d="m442.073 359.301c0 17.374-7.042 33.103-18.428 44.488-11.386 11.386-27.115 18.428-44.488 18.428-17.374 0-33.103-7.042-44.488-18.428-11.386-11.386-18.428-27.115-18.428-44.488s7.042-33.103 18.428-44.488c11.386-11.386 27.115-18.428 44.488-18.428 17.374 0 33.103 7.042 44.488 18.428 11.386 11.385 18.428 27.114 18.428 44.488z"/></g><path d="m371.451 398.255-19.225-19.227-19.225-19.226 7.968-7.966 7.968-7.966 11.257 11.257 11.257 11.257 18.963-18.963 18.963-18.964 7.968 7.966 7.967 7.966-26.93 26.933z" fill="#f95d95"/></g></svg>